# xmcd
# 
# Track frame offsets:
#     150
#     18097
#     40717
#     64095
#     83982
#     111770
#     138935
#     165527
# 
# Disc length: 2454
# 
# Revision: 0
# Processed by: cddbd v1.5.2PL0 Copyright (c) Steve Scherf et al.
# Submitted via: BonkEnc v1.0.8
# 
DISCID=5a099408
DTITLE=Quincy Jones - Quincy Jones And His Orchestra At Newport '61
DYEAR=1961
DGENRE=Big Band
TTITLE0=Meet B.B.
TTITLE1=The Boy In The Tree
TTITLE2=Evening In Paris
TTITLE3=Airmail Special
TTITLE4=Lester Leaps In
TTITLE5=G'won Train
TTITLE6=Banja Luka
TTITLE7=Gana
EXTD=YEAR: 1961
EXTT0=
EXTT1=
EXTT2=
EXTT3=
EXTT4=
EXTT5=
EXTT6=
EXTT7=
PLAYORDER=
